<mxfile host="app.diagrams.net" modified="2022-01-14T12:02:14.356Z" agent="5.0 (Windows)" etag="hDQ6rjIxKtSL_GX6g2AT" version="16.2.4" type="github" pages="3">
  <diagram id="rJTN6nQchsevcNzTw1fS" name="Page-1">
    <mxGraphModel dx="1955" dy="2277" grid="1" gridSize="10" guides="1" tooltips="1" connect="1" arrows="1" fold="1" page="1" pageScale="1" pageWidth="827" pageHeight="1169" math="0" shadow="0">
      <root>
        <mxCell id="0" />
        <mxCell id="1" parent="0" />
        <mxCell id="Sr-4OSjpqy5ggTlhQciy-38" value="&lt;p style=&quot;margin: 0px ; margin-top: 4px ; margin-left: 10px ; text-align: left&quot;&gt;&lt;b&gt;act&lt;/b&gt;   [activity] Start automatic packaging&lt;br&gt;&lt;/p&gt;" style="html=1;shape=mxgraph.sysml.package;align=left;spacingLeft=5;verticalAlign=top;spacingTop=-3;labelX=371.3;html=1;overflow=fill;" parent="1" vertex="1">
          <mxGeometry x="45" y="-80" width="710" height="940" as="geometry" />
        </mxCell>
        <mxCell id="Sr-4OSjpqy5ggTlhQciy-5" value="Move end affector to start" style="shape=rect;html=1;rounded=1;whiteSpace=wrap;align=center;" parent="1" vertex="1">
          <mxGeometry x="160" y="240" width="160" height="40" as="geometry" />
        </mxCell>
        <mxCell id="Sr-4OSjpqy5ggTlhQciy-7" value="Ask blocks" style="html=1;shape=mxgraph.sysml.sendSigAct;strokeWidth=2;whiteSpace=wrap;align=center;" parent="1" vertex="1">
          <mxGeometry x="160" y="400" width="160" height="40" as="geometry" />
        </mxCell>
        <mxCell id="Sr-4OSjpqy5ggTlhQciy-8" value="Ask blocks" style="html=1;shape=mxgraph.sysml.accEvent;strokeWidth=2;whiteSpace=wrap;align=center;" parent="1" vertex="1">
          <mxGeometry x="470" y="400" width="180" height="40" as="geometry" />
        </mxCell>
        <mxCell id="Sr-4OSjpqy5ggTlhQciy-14" value="Automatic packaging" style="shape=rect;html=1;rounded=1;whiteSpace=wrap;align=center;" parent="1" vertex="1">
          <mxGeometry x="159.36" y="840" width="160" height="40" as="geometry" />
        </mxCell>
        <mxCell id="Sr-4OSjpqy5ggTlhQciy-15" value="" style="endArrow=open;html=1;rounded=0;exitX=0.5;exitY=1;exitDx=0;exitDy=0;exitPerimeter=0;dashed=1;endFill=0;" parent="1" edge="1">
          <mxGeometry width="50" height="50" relative="1" as="geometry">
            <mxPoint x="240" y="120" as="sourcePoint" />
            <mxPoint x="240" y="160" as="targetPoint" />
          </mxGeometry>
        </mxCell>
        <mxCell id="Sr-4OSjpqy5ggTlhQciy-16" value="" style="endArrow=open;html=1;rounded=0;exitX=0.5;exitY=1;exitDx=0;exitDy=0;exitPerimeter=0;entryX=0.5;entryY=0;entryDx=0;entryDy=0;dashed=1;endFill=0;" parent="1" edge="1">
          <mxGeometry width="50" height="50" relative="1" as="geometry">
            <mxPoint x="239.41" y="280" as="sourcePoint" />
            <mxPoint x="239.41" y="320" as="targetPoint" />
          </mxGeometry>
        </mxCell>
        <mxCell id="Sr-4OSjpqy5ggTlhQciy-17" value="" style="endArrow=open;html=1;rounded=0;exitX=0.5;exitY=1;exitDx=0;exitDy=0;exitPerimeter=0;entryX=0.5;entryY=0;entryDx=0;entryDy=0;dashed=1;endFill=0;" parent="1" edge="1">
          <mxGeometry width="50" height="50" relative="1" as="geometry">
            <mxPoint x="239.41000000000008" y="440" as="sourcePoint" />
            <mxPoint x="239.41000000000008" y="480" as="targetPoint" />
          </mxGeometry>
        </mxCell>
        <mxCell id="Sr-4OSjpqy5ggTlhQciy-20" value="" style="shape=rhombus;html=1;verticalLabelPosition=bottom;verticalAlignment=top;" parent="1" vertex="1">
          <mxGeometry x="220" y="160" width="40" height="40" as="geometry" />
        </mxCell>
        <mxCell id="Sr-4OSjpqy5ggTlhQciy-24" value="" style="shape=rhombus;html=1;verticalLabelPosition=bottom;verticalAlignment=top;" parent="1" vertex="1">
          <mxGeometry x="220" y="320" width="40" height="40" as="geometry" />
        </mxCell>
        <mxCell id="Sr-4OSjpqy5ggTlhQciy-25" value="" style="endArrow=open;html=1;rounded=0;exitX=0;exitY=0.5;exitDx=0;exitDy=0;dashed=1;endFill=0;entryX=0;entryY=0.5;entryDx=0;entryDy=0;" parent="1" source="Sr-4OSjpqy5ggTlhQciy-24" target="Sr-4OSjpqy5ggTlhQciy-20" edge="1">
          <mxGeometry width="50" height="50" relative="1" as="geometry">
            <mxPoint x="170" y="350" as="sourcePoint" />
            <mxPoint x="170" y="390" as="targetPoint" />
            <Array as="points">
              <mxPoint x="120" y="340" />
              <mxPoint x="120" y="180" />
            </Array>
          </mxGeometry>
        </mxCell>
        <mxCell id="Sr-4OSjpqy5ggTlhQciy-26" value="" style="endArrow=open;html=1;rounded=0;exitX=0.5;exitY=1;exitDx=0;exitDy=0;exitPerimeter=0;dashed=1;endFill=0;" parent="1" edge="1">
          <mxGeometry width="50" height="50" relative="1" as="geometry">
            <mxPoint x="239.41" y="200" as="sourcePoint" />
            <mxPoint x="239.41" y="240" as="targetPoint" />
          </mxGeometry>
        </mxCell>
        <mxCell id="Sr-4OSjpqy5ggTlhQciy-27" value="" style="endArrow=open;html=1;rounded=0;exitX=0.5;exitY=1;exitDx=0;exitDy=0;exitPerimeter=0;dashed=1;endFill=0;" parent="1" target="Sr-4OSjpqy5ggTlhQciy-7" edge="1">
          <mxGeometry width="50" height="50" relative="1" as="geometry">
            <mxPoint x="239.41000000000008" y="360" as="sourcePoint" />
            <mxPoint x="239.41000000000008" y="400" as="targetPoint" />
          </mxGeometry>
        </mxCell>
        <mxCell id="Sr-4OSjpqy5ggTlhQciy-28" value="[else]" style="text;html=1;strokeColor=none;fillColor=none;align=center;verticalAlign=middle;whiteSpace=wrap;rounded=0;" parent="1" vertex="1">
          <mxGeometry x="160" y="310" width="60" height="30" as="geometry" />
        </mxCell>
        <mxCell id="Sr-4OSjpqy5ggTlhQciy-29" value="[end affector is at start]" style="text;html=1;strokeColor=none;fillColor=none;align=center;verticalAlign=middle;whiteSpace=wrap;rounded=0;" parent="1" vertex="1">
          <mxGeometry x="250" y="360" width="130" height="30" as="geometry" />
        </mxCell>
        <mxCell id="Sr-4OSjpqy5ggTlhQciy-30" value="" style="endArrow=open;html=1;rounded=0;exitX=0.5;exitY=1;exitDx=0;exitDy=0;exitPerimeter=0;dashed=1;endFill=0;" parent="1" edge="1">
          <mxGeometry width="50" height="50" relative="1" as="geometry">
            <mxPoint x="559.4100000000001" y="120" as="sourcePoint" />
            <mxPoint x="559.4100000000001" y="160" as="targetPoint" />
          </mxGeometry>
        </mxCell>
        <mxCell id="Sr-4OSjpqy5ggTlhQciy-33" value="" style="endArrow=open;html=1;rounded=0;exitX=0.5;exitY=1;exitDx=0;exitDy=0;exitPerimeter=0;dashed=1;endFill=0;entryX=0.5;entryY=0;entryDx=0;entryDy=0;" parent="1" source="Sr-4OSjpqy5ggTlhQciy-8" target="Sr-4OSjpqy5ggTlhQciy-10" edge="1">
          <mxGeometry width="50" height="50" relative="1" as="geometry">
            <mxPoint x="559.4100000000003" y="280" as="sourcePoint" />
            <mxPoint x="559.4100000000003" y="320" as="targetPoint" />
          </mxGeometry>
        </mxCell>
        <mxCell id="Sr-4OSjpqy5ggTlhQciy-36" value="PLC" style="html=1;shape=mxgraph.sysml.actPart;strokeWidth=3;verticalAlign=top;rotation=0;whiteSpace=wrap;" parent="1" vertex="1">
          <mxGeometry x="79.36" y="-40" width="320" height="860" as="geometry" />
        </mxCell>
        <mxCell id="Sr-4OSjpqy5ggTlhQciy-37" value="Server" style="html=1;shape=mxgraph.sysml.actPart;strokeWidth=3;verticalAlign=top;rotation=0;whiteSpace=wrap;" parent="1" vertex="1">
          <mxGeometry x="399.36" y="-40" width="320" height="860" as="geometry" />
        </mxCell>
        <mxCell id="Sr-4OSjpqy5ggTlhQciy-43" value="" style="endArrow=none;html=1;rounded=0;exitX=0.007;exitY=0;exitDx=0;exitDy=0;exitPerimeter=0;strokeWidth=3;entryX=1.004;entryY=0;entryDx=0;entryDy=0;entryPerimeter=0;jumpSize=4;" parent="1" source="Sr-4OSjpqy5ggTlhQciy-36" target="Sr-4OSjpqy5ggTlhQciy-37" edge="1">
          <mxGeometry width="50" height="50" relative="1" as="geometry">
            <mxPoint x="289.36" y="-150" as="sourcePoint" />
            <mxPoint x="339.36" y="-200" as="targetPoint" />
          </mxGeometry>
        </mxCell>
        <mxCell id="Sr-4OSjpqy5ggTlhQciy-44" value="" style="endArrow=none;html=1;rounded=0;exitX=0.007;exitY=0;exitDx=0;exitDy=0;exitPerimeter=0;strokeWidth=3;entryX=1.004;entryY=0;entryDx=0;entryDy=0;entryPerimeter=0;jumpSize=4;" parent="1" edge="1">
          <mxGeometry width="50" height="50" relative="1" as="geometry">
            <mxPoint x="80.32000000000001" y="-10" as="sourcePoint" />
            <mxPoint x="719.36" y="-10" as="targetPoint" />
          </mxGeometry>
        </mxCell>
        <mxCell id="Sr-4OSjpqy5ggTlhQciy-45" value="" style="endArrow=none;html=1;rounded=0;exitX=0.007;exitY=0;exitDx=0;exitDy=0;exitPerimeter=0;strokeWidth=3;entryX=1.004;entryY=0;entryDx=0;entryDy=0;entryPerimeter=0;jumpSize=4;" parent="1" edge="1">
          <mxGeometry width="50" height="50" relative="1" as="geometry">
            <mxPoint x="80.48000000000003" y="820" as="sourcePoint" />
            <mxPoint x="719.52" y="820" as="targetPoint" />
          </mxGeometry>
        </mxCell>
        <mxCell id="Sr-4OSjpqy5ggTlhQciy-56" value="Blocks : array[0...16]" style="text;html=1;strokeColor=none;fillColor=none;align=center;verticalAlign=middle;whiteSpace=wrap;rounded=0;" parent="1" vertex="1">
          <mxGeometry x="260" y="520" width="60" height="30" as="geometry" />
        </mxCell>
        <mxCell id="Sr-4OSjpqy5ggTlhQciy-60" style="edgeStyle=orthogonalEdgeStyle;rounded=0;jumpSize=1;orthogonalLoop=1;jettySize=auto;html=1;entryX=0.5;entryY=0;entryDx=0;entryDy=0;endArrow=open;endFill=0;startSize=2;endSize=2;strokeWidth=1;" parent="1" source="Sr-4OSjpqy5ggTlhQciy-57" target="Sr-4OSjpqy5ggTlhQciy-58" edge="1">
          <mxGeometry relative="1" as="geometry" />
        </mxCell>
        <mxCell id="Sr-4OSjpqy5ggTlhQciy-57" value="" style="whiteSpace=wrap;html=1;aspect=fixed;" parent="1" vertex="1">
          <mxGeometry x="230" y="510" width="20" height="20" as="geometry" />
        </mxCell>
        <mxCell id="Sr-4OSjpqy5ggTlhQciy-12" value="Get blocks" style="html=1;shape=mxgraph.sysml.accEvent;strokeWidth=2;whiteSpace=wrap;align=center;" parent="1" vertex="1">
          <mxGeometry x="160" y="480" width="160" height="40" as="geometry" />
        </mxCell>
        <mxCell id="Sr-4OSjpqy5ggTlhQciy-58" value="" style="whiteSpace=wrap;html=1;aspect=fixed;" parent="1" vertex="1">
          <mxGeometry x="230" y="640" width="20" height="20" as="geometry" />
        </mxCell>
        <mxCell id="Sr-4OSjpqy5ggTlhQciy-13" value="&lt;div&gt;Parse block locations&lt;/div&gt;&lt;div&gt;&lt;br&gt;&lt;/div&gt;" style="shape=rect;html=1;rounded=1;whiteSpace=wrap;align=center;" parent="1" vertex="1">
          <mxGeometry x="160" y="650" width="160" height="40" as="geometry" />
        </mxCell>
        <mxCell id="Sr-4OSjpqy5ggTlhQciy-61" value="Blocks : array[0...16]" style="text;html=1;strokeColor=none;fillColor=none;align=center;verticalAlign=middle;whiteSpace=wrap;rounded=0;" parent="1" vertex="1">
          <mxGeometry x="259.36" y="610" width="60" height="30" as="geometry" />
        </mxCell>
        <mxCell id="Sr-4OSjpqy5ggTlhQciy-62" value="" style="endArrow=open;html=1;rounded=0;dashed=1;endFill=0;entryX=0.5;entryY=0;entryDx=0;entryDy=0;exitX=0.5;exitY=1;exitDx=0;exitDy=0;" parent="1" source="Sr-4OSjpqy5ggTlhQciy-13" target="Sr-4OSjpqy5ggTlhQciy-14" edge="1">
          <mxGeometry width="50" height="50" relative="1" as="geometry">
            <mxPoint x="239" y="700" as="sourcePoint" />
            <mxPoint x="450" y="730" as="targetPoint" />
            <Array as="points" />
          </mxGeometry>
        </mxCell>
        <mxCell id="Sr-4OSjpqy5ggTlhQciy-64" value="" style="html=1;shape=mxgraph.sysml.flowFinal;strokeWidth=2;verticalLabelPosition=bottom;verticalAlignment=top;" parent="1" vertex="1">
          <mxGeometry x="540" y="770" width="40" height="40" as="geometry" />
        </mxCell>
        <mxCell id="Sr-4OSjpqy5ggTlhQciy-68" value="" style="endArrow=open;html=1;rounded=0;exitX=0.5;exitY=1;exitDx=0;exitDy=0;exitPerimeter=0;dashed=1;endFill=0;entryX=0.5;entryY=0;entryDx=0;entryDy=0;entryPerimeter=0;" parent="1" source="Sr-4OSjpqy5ggTlhQciy-11" target="Sr-4OSjpqy5ggTlhQciy-64" edge="1">
          <mxGeometry width="50" height="50" relative="1" as="geometry">
            <mxPoint x="559.4100000000003" y="520" as="sourcePoint" />
            <mxPoint x="560" y="580" as="targetPoint" />
          </mxGeometry>
        </mxCell>
        <mxCell id="Sr-4OSjpqy5ggTlhQciy-69" value="" style="shape=ellipse;html=1;fillColor=#000000;strokeWidth=2;verticalLabelPosition=bottom;verticalAlignment=top;perimeter=ellipsePerimeter;" parent="1" vertex="1">
          <mxGeometry x="220" y="80" width="40" height="40" as="geometry" />
        </mxCell>
        <mxCell id="pWvaUL1xxARUC-W4VffC-5" value="" style="shape=ellipse;html=1;fillColor=#000000;strokeWidth=2;verticalLabelPosition=bottom;verticalAlignment=top;perimeter=ellipsePerimeter;" parent="1" vertex="1">
          <mxGeometry x="539.36" y="80" width="40" height="40" as="geometry" />
        </mxCell>
        <mxCell id="pWvaUL1xxARUC-W4VffC-6" value="" style="group" parent="1" vertex="1" connectable="0">
          <mxGeometry x="469.36" y="610" width="180" height="50" as="geometry" />
        </mxCell>
        <mxCell id="Sr-4OSjpqy5ggTlhQciy-48" value="" style="whiteSpace=wrap;html=1;aspect=fixed;" parent="pWvaUL1xxARUC-W4VffC-6" vertex="1">
          <mxGeometry x="80" width="20" height="20" as="geometry" />
        </mxCell>
        <mxCell id="Sr-4OSjpqy5ggTlhQciy-11" value="Get blocks" style="html=1;shape=mxgraph.sysml.sendSigAct;strokeWidth=2;whiteSpace=wrap;align=center;" parent="pWvaUL1xxARUC-W4VffC-6" vertex="1">
          <mxGeometry y="10" width="180" height="40" as="geometry" />
        </mxCell>
        <mxCell id="pWvaUL1xxARUC-W4VffC-7" value="" style="group" parent="1" vertex="1" connectable="0">
          <mxGeometry x="469.36" y="480" width="180" height="130" as="geometry" />
        </mxCell>
        <mxCell id="Sr-4OSjpqy5ggTlhQciy-47" value="" style="edgeStyle=orthogonalEdgeStyle;rounded=0;jumpSize=4;orthogonalLoop=1;jettySize=auto;html=1;endArrow=open;endFill=0;strokeWidth=1;" parent="pWvaUL1xxARUC-W4VffC-7" source="Sr-4OSjpqy5ggTlhQciy-10" edge="1">
          <mxGeometry relative="1" as="geometry">
            <mxPoint x="90" y="130" as="targetPoint" />
          </mxGeometry>
        </mxCell>
        <mxCell id="Sr-4OSjpqy5ggTlhQciy-46" value="" style="whiteSpace=wrap;html=1;aspect=fixed;" parent="pWvaUL1xxARUC-W4VffC-7" vertex="1">
          <mxGeometry x="80" y="30" width="20" height="20" as="geometry" />
        </mxCell>
        <mxCell id="Sr-4OSjpqy5ggTlhQciy-10" value="Find blocks" style="shape=rect;html=1;rounded=1;whiteSpace=wrap;align=center;" parent="pWvaUL1xxARUC-W4VffC-7" vertex="1">
          <mxGeometry width="180" height="40" as="geometry" />
        </mxCell>
        <mxCell id="Sr-4OSjpqy5ggTlhQciy-53" value="Blocks : array[0...16]" style="text;html=1;strokeColor=none;fillColor=none;align=center;verticalAlign=middle;whiteSpace=wrap;rounded=0;" parent="pWvaUL1xxARUC-W4VffC-7" vertex="1">
          <mxGeometry x="110" y="100" width="60" height="30" as="geometry" />
        </mxCell>
        <mxCell id="Sr-4OSjpqy5ggTlhQciy-54" value="Blocks : array[0...16]" style="text;html=1;strokeColor=none;fillColor=none;align=center;verticalAlign=middle;whiteSpace=wrap;rounded=0;" parent="pWvaUL1xxARUC-W4VffC-7" vertex="1">
          <mxGeometry x="110" y="50" width="60" height="30" as="geometry" />
        </mxCell>
        <mxCell id="pWvaUL1xxARUC-W4VffC-8" value="" style="group" parent="1" vertex="1" connectable="0">
          <mxGeometry x="470" y="240" width="180" height="150" as="geometry" />
        </mxCell>
        <mxCell id="pWvaUL1xxARUC-W4VffC-11" value="Find connection" style="shape=rect;html=1;rounded=1;whiteSpace=wrap;align=center;" parent="pWvaUL1xxARUC-W4VffC-8" vertex="1">
          <mxGeometry width="180" height="40" as="geometry" />
        </mxCell>
        <mxCell id="pWvaUL1xxARUC-W4VffC-14" value="" style="shape=rhombus;html=1;verticalLabelPosition=bottom;verticalAlignment=top;" parent="pWvaUL1xxARUC-W4VffC-8" vertex="1">
          <mxGeometry x="70" y="80" width="40" height="40" as="geometry" />
        </mxCell>
        <mxCell id="pWvaUL1xxARUC-W4VffC-18" value="" style="endArrow=open;html=1;rounded=0;exitX=0.5;exitY=1;exitDx=0;exitDy=0;exitPerimeter=0;dashed=1;endFill=0;" parent="pWvaUL1xxARUC-W4VffC-8" edge="1">
          <mxGeometry width="50" height="50" relative="1" as="geometry">
            <mxPoint x="89.56999999999994" y="40" as="sourcePoint" />
            <mxPoint x="89.56999999999994" y="80" as="targetPoint" />
          </mxGeometry>
        </mxCell>
        <mxCell id="pWvaUL1xxARUC-W4VffC-20" value="[while not connected]" style="text;html=1;strokeColor=none;fillColor=none;align=center;verticalAlign=middle;whiteSpace=wrap;rounded=0;" parent="pWvaUL1xxARUC-W4VffC-8" vertex="1">
          <mxGeometry x="-20" y="60" width="110" height="30" as="geometry" />
        </mxCell>
        <mxCell id="pWvaUL1xxARUC-W4VffC-21" value="[else]" style="text;html=1;strokeColor=none;fillColor=none;align=center;verticalAlign=middle;whiteSpace=wrap;rounded=0;" parent="pWvaUL1xxARUC-W4VffC-8" vertex="1">
          <mxGeometry x="90" y="120" width="60" height="30" as="geometry" />
        </mxCell>
        <mxCell id="pWvaUL1xxARUC-W4VffC-15" value="" style="shape=rhombus;html=1;verticalLabelPosition=bottom;verticalAlignment=top;" parent="1" vertex="1">
          <mxGeometry x="540" y="160" width="40" height="40" as="geometry" />
        </mxCell>
        <mxCell id="pWvaUL1xxARUC-W4VffC-16" value="" style="endArrow=open;html=1;rounded=0;exitX=0;exitY=0.5;exitDx=0;exitDy=0;dashed=1;endFill=0;entryX=0;entryY=0.5;entryDx=0;entryDy=0;" parent="1" source="pWvaUL1xxARUC-W4VffC-14" edge="1">
          <mxGeometry width="50" height="50" relative="1" as="geometry">
            <mxPoint x="540" y="340" as="sourcePoint" />
            <mxPoint x="540" y="180" as="targetPoint" />
            <Array as="points">
              <mxPoint x="440" y="340" />
              <mxPoint x="440" y="180" />
            </Array>
          </mxGeometry>
        </mxCell>
        <mxCell id="pWvaUL1xxARUC-W4VffC-17" value="" style="endArrow=open;html=1;rounded=0;exitX=0.5;exitY=1;exitDx=0;exitDy=0;exitPerimeter=0;dashed=1;endFill=0;entryX=0.5;entryY=0;entryDx=0;entryDy=0;" parent="1" target="pWvaUL1xxARUC-W4VffC-11" edge="1">
          <mxGeometry width="50" height="50" relative="1" as="geometry">
            <mxPoint x="559.5699999999999" y="200" as="sourcePoint" />
            <mxPoint x="560" y="230" as="targetPoint" />
          </mxGeometry>
        </mxCell>
        <mxCell id="pWvaUL1xxARUC-W4VffC-19" value="" style="endArrow=open;html=1;rounded=0;exitX=0.5;exitY=1;exitDx=0;exitDy=0;entryX=0.5;entryY=0;entryDx=0;entryDy=0;dashed=1;endFill=0;entryPerimeter=0;" parent="1" source="pWvaUL1xxARUC-W4VffC-14" target="Sr-4OSjpqy5ggTlhQciy-8" edge="1">
          <mxGeometry width="50" height="50" relative="1" as="geometry">
            <mxPoint x="559.5699999999999" y="350" as="sourcePoint" />
            <mxPoint x="559.5699999999999" y="390" as="targetPoint" />
          </mxGeometry>
        </mxCell>
      </root>
    </mxGraphModel>
  </diagram>
  <diagram id="YXJdDzIsX8aemEX2qwKI" name="Page-2">
    <mxGraphModel dx="782" dy="443" grid="1" gridSize="10" guides="1" tooltips="1" connect="1" arrows="1" fold="1" page="1" pageScale="1" pageWidth="827" pageHeight="1169" math="0" shadow="0">
      <root>
        <mxCell id="fhWBwjrXLpCEhDLs0T0V-0" />
        <mxCell id="fhWBwjrXLpCEhDLs0T0V-1" parent="fhWBwjrXLpCEhDLs0T0V-0" />
        <mxCell id="fhWBwjrXLpCEhDLs0T0V-2" value="PLC" style="shape=rect;html=1;whiteSpace=wrap;align=center;" vertex="1" parent="fhWBwjrXLpCEhDLs0T0V-1">
          <mxGeometry x="150" y="110" width="160" height="60" as="geometry" />
        </mxCell>
        <mxCell id="fhWBwjrXLpCEhDLs0T0V-3" value="" style="edgeStyle=none;html=1;dashed=1;endArrow=none;align=center;verticalAlign=bottom;exitX=0.5;exitY=1;rounded=0;" edge="1" source="fhWBwjrXLpCEhDLs0T0V-2" parent="fhWBwjrXLpCEhDLs0T0V-1">
          <mxGeometry x="1" relative="1" as="geometry">
            <mxPoint x="230" y="260" as="targetPoint" />
          </mxGeometry>
        </mxCell>
        <mxCell id="fhWBwjrXLpCEhDLs0T0V-4" value="SERVER" style="shape=rect;html=1;whiteSpace=wrap;align=center;" vertex="1" parent="fhWBwjrXLpCEhDLs0T0V-1">
          <mxGeometry x="470" y="110" width="160" height="60" as="geometry" />
        </mxCell>
        <mxCell id="fhWBwjrXLpCEhDLs0T0V-5" value="" style="edgeStyle=none;html=1;dashed=1;endArrow=none;align=center;verticalAlign=bottom;exitX=0.5;exitY=1;rounded=0;" edge="1" source="fhWBwjrXLpCEhDLs0T0V-4" parent="fhWBwjrXLpCEhDLs0T0V-1">
          <mxGeometry x="1" relative="1" as="geometry">
            <mxPoint x="550" y="260" as="targetPoint" />
          </mxGeometry>
        </mxCell>
      </root>
    </mxGraphModel>
  </diagram>
  <diagram id="96qt5LMmLIuoLaYHYxK5" name="Page-3">
    <mxGraphModel dx="1117" dy="633" grid="1" gridSize="10" guides="1" tooltips="1" connect="1" arrows="1" fold="1" page="1" pageScale="1" pageWidth="827" pageHeight="1169" math="0" shadow="0">
      <root>
        <mxCell id="BRquKrhbLq2bK9uoOKul-0" />
        <mxCell id="BRquKrhbLq2bK9uoOKul-1" parent="BRquKrhbLq2bK9uoOKul-0" />
        <mxCell id="cp8Quu_cO_Qsme-704NT-0" value="&lt;p style=&quot;margin: 0px ; margin-top: 4px ; margin-left: 10px ; text-align: left&quot;&gt;&lt;b&gt;act&lt;/b&gt;   [activity] pack_array&lt;br&gt;&lt;/p&gt;" style="html=1;shape=mxgraph.sysml.package;align=left;spacingLeft=5;verticalAlign=top;spacingTop=-3;labelX=371.3;html=1;overflow=fill;" vertex="1" parent="BRquKrhbLq2bK9uoOKul-1">
          <mxGeometry x="200" y="10" width="370" height="490" as="geometry" />
        </mxCell>
        <mxCell id="CRUeSF_NIXHE9e5KZA6R-27" value="" style="whiteSpace=wrap;html=1;aspect=fixed;" vertex="1" parent="BRquKrhbLq2bK9uoOKul-1">
          <mxGeometry x="350" y="470" width="20" height="20" as="geometry" />
        </mxCell>
        <mxCell id="CRUeSF_NIXHE9e5KZA6R-26" value="" style="whiteSpace=wrap;html=1;aspect=fixed;" vertex="1" parent="BRquKrhbLq2bK9uoOKul-1">
          <mxGeometry x="350" y="390" width="20" height="20" as="geometry" />
        </mxCell>
        <mxCell id="CRUeSF_NIXHE9e5KZA6R-22" value="" style="whiteSpace=wrap;html=1;aspect=fixed;" vertex="1" parent="BRquKrhbLq2bK9uoOKul-1">
          <mxGeometry x="310" y="350" width="20" height="20" as="geometry" />
        </mxCell>
        <mxCell id="CRUeSF_NIXHE9e5KZA6R-16" value="" style="whiteSpace=wrap;html=1;aspect=fixed;" vertex="1" parent="BRquKrhbLq2bK9uoOKul-1">
          <mxGeometry x="430" y="230" width="20" height="20" as="geometry" />
        </mxCell>
        <mxCell id="CRUeSF_NIXHE9e5KZA6R-1" value="" style="whiteSpace=wrap;html=1;aspect=fixed;" vertex="1" parent="BRquKrhbLq2bK9uoOKul-1">
          <mxGeometry x="390" y="350" width="20" height="20" as="geometry" />
        </mxCell>
        <mxCell id="CRUeSF_NIXHE9e5KZA6R-2" value="bytes : packed data" style="text;html=1;strokeColor=none;fillColor=none;align=center;verticalAlign=middle;whiteSpace=wrap;rounded=0;" vertex="1" parent="BRquKrhbLq2bK9uoOKul-1">
          <mxGeometry x="370" y="400" width="100" height="30" as="geometry" />
        </mxCell>
        <mxCell id="CRUeSF_NIXHE9e5KZA6R-0" value="" style="whiteSpace=wrap;html=1;aspect=fixed;" vertex="1" parent="BRquKrhbLq2bK9uoOKul-1">
          <mxGeometry x="390" y="270" width="20" height="20" as="geometry" />
        </mxCell>
        <mxCell id="SuwZD3yvHXeo55nXqh4B-1" value="Create byte code" style="shape=rect;html=1;rounded=1;whiteSpace=wrap;align=center;" vertex="1" parent="BRquKrhbLq2bK9uoOKul-1">
          <mxGeometry x="360" y="240" width="160" height="40" as="geometry" />
        </mxCell>
        <mxCell id="SuwZD3yvHXeo55nXqh4B-2" value="pack data" style="shape=rect;html=1;rounded=1;whiteSpace=wrap;align=center;" vertex="1" parent="BRquKrhbLq2bK9uoOKul-1">
          <mxGeometry x="280" y="360" width="160" height="40" as="geometry" />
        </mxCell>
        <mxCell id="SuwZD3yvHXeo55nXqh4B-3" value="return packed data" style="shape=rect;html=1;rounded=1;whiteSpace=wrap;align=center;" vertex="1" parent="BRquKrhbLq2bK9uoOKul-1">
          <mxGeometry x="280" y="480" width="160" height="40" as="geometry" />
        </mxCell>
        <mxCell id="Zccdwcbxup76INu9L1Dw-0" value="byte code : string" style="text;html=1;strokeColor=none;fillColor=none;align=center;verticalAlign=middle;whiteSpace=wrap;rounded=0;" vertex="1" parent="BRquKrhbLq2bK9uoOKul-1">
          <mxGeometry x="440" y="280" width="100" height="30" as="geometry" />
        </mxCell>
        <mxCell id="Zccdwcbxup76INu9L1Dw-1" style="edgeStyle=orthogonalEdgeStyle;rounded=0;orthogonalLoop=1;jettySize=auto;html=1;exitX=0.5;exitY=1;exitDx=0;exitDy=0;" edge="1" parent="BRquKrhbLq2bK9uoOKul-1" source="Zccdwcbxup76INu9L1Dw-0" target="Zccdwcbxup76INu9L1Dw-0">
          <mxGeometry relative="1" as="geometry" />
        </mxCell>
        <mxCell id="FFLOhRvNc_9cGqYtOz8n-0" value="" style="shape=ellipse;html=1;fillColor=#000000;strokeWidth=2;verticalLabelPosition=bottom;verticalAlignment=top;perimeter=ellipsePerimeter;" vertex="1" parent="BRquKrhbLq2bK9uoOKul-1">
          <mxGeometry x="358" y="40" width="40" height="40" as="geometry" />
        </mxCell>
        <mxCell id="CRUeSF_NIXHE9e5KZA6R-5" value="" style="shape=rect;html=1;fillColor=#000000;verticalLabelPosition=bottom;verticalAlignment=top;rotation=90;" vertex="1" parent="BRquKrhbLq2bK9uoOKul-1">
          <mxGeometry x="376" y="30" width="4" height="200" as="geometry" />
        </mxCell>
        <mxCell id="CRUeSF_NIXHE9e5KZA6R-12" value="" style="endArrow=classic;html=1;rounded=0;entryX=0.5;entryY=0;entryDx=0;entryDy=0;" edge="1" parent="BRquKrhbLq2bK9uoOKul-1" target="CRUeSF_NIXHE9e5KZA6R-22">
          <mxGeometry width="50" height="50" relative="1" as="geometry">
            <mxPoint x="320" y="130" as="sourcePoint" />
            <mxPoint x="356" y="240" as="targetPoint" />
            <Array as="points">
              <mxPoint x="320" y="160" />
              <mxPoint x="320" y="200" />
            </Array>
          </mxGeometry>
        </mxCell>
        <mxCell id="CRUeSF_NIXHE9e5KZA6R-15" value="" style="endArrow=classic;html=1;rounded=0;exitX=0.5;exitY=1;exitDx=0;exitDy=0;entryX=0.5;entryY=0;entryDx=0;entryDy=0;" edge="1" parent="BRquKrhbLq2bK9uoOKul-1" source="CRUeSF_NIXHE9e5KZA6R-0" target="CRUeSF_NIXHE9e5KZA6R-1">
          <mxGeometry width="50" height="50" relative="1" as="geometry">
            <mxPoint x="344" y="138" as="sourcePoint" />
            <mxPoint x="330" y="370" as="targetPoint" />
            <Array as="points">
              <mxPoint x="400" y="320" />
            </Array>
          </mxGeometry>
        </mxCell>
        <mxCell id="CRUeSF_NIXHE9e5KZA6R-18" value="" style="endArrow=classic;html=1;rounded=0;" edge="1" parent="BRquKrhbLq2bK9uoOKul-1">
          <mxGeometry width="50" height="50" relative="1" as="geometry">
            <mxPoint x="440" y="130" as="sourcePoint" />
            <mxPoint x="440" y="230" as="targetPoint" />
            <Array as="points">
              <mxPoint x="440" y="160" />
              <mxPoint x="440" y="200" />
            </Array>
          </mxGeometry>
        </mxCell>
        <mxCell id="CRUeSF_NIXHE9e5KZA6R-19" value="int : len(array)" style="text;html=1;strokeColor=none;fillColor=none;align=center;verticalAlign=middle;whiteSpace=wrap;rounded=0;" vertex="1" parent="BRquKrhbLq2bK9uoOKul-1">
          <mxGeometry x="450" y="200" width="100" height="30" as="geometry" />
        </mxCell>
        <mxCell id="CRUeSF_NIXHE9e5KZA6R-21" value="np.ndarray : array" style="text;html=1;strokeColor=none;fillColor=none;align=center;verticalAlign=middle;whiteSpace=wrap;rounded=0;" vertex="1" parent="BRquKrhbLq2bK9uoOKul-1">
          <mxGeometry x="210" y="330" width="100" height="30" as="geometry" />
        </mxCell>
        <mxCell id="CRUeSF_NIXHE9e5KZA6R-25" value="" style="endArrow=classic;html=1;rounded=0;exitX=0.5;exitY=1;exitDx=0;exitDy=0;entryX=0;entryY=0.5;entryDx=0;entryDy=0;" edge="1" parent="BRquKrhbLq2bK9uoOKul-1" source="FFLOhRvNc_9cGqYtOz8n-0" target="CRUeSF_NIXHE9e5KZA6R-5">
          <mxGeometry width="50" height="50" relative="1" as="geometry">
            <mxPoint x="360" y="140" as="sourcePoint" />
            <mxPoint x="410" y="90" as="targetPoint" />
          </mxGeometry>
        </mxCell>
        <mxCell id="CRUeSF_NIXHE9e5KZA6R-29" value="" style="endArrow=classic;html=1;rounded=0;exitX=0.5;exitY=1;exitDx=0;exitDy=0;entryX=0.5;entryY=0;entryDx=0;entryDy=0;" edge="1" parent="BRquKrhbLq2bK9uoOKul-1">
          <mxGeometry width="50" height="50" relative="1" as="geometry">
            <mxPoint x="360" y="410" as="sourcePoint" />
            <mxPoint x="360" y="470" as="targetPoint" />
            <Array as="points">
              <mxPoint x="360" y="440" />
            </Array>
          </mxGeometry>
        </mxCell>
        <mxCell id="CRUeSF_NIXHE9e5KZA6R-30" value="byte code : string" style="text;html=1;strokeColor=none;fillColor=none;align=center;verticalAlign=middle;whiteSpace=wrap;rounded=0;" vertex="1" parent="BRquKrhbLq2bK9uoOKul-1">
          <mxGeometry x="450" y="350" width="100" height="30" as="geometry" />
        </mxCell>
        <mxCell id="CRUeSF_NIXHE9e5KZA6R-31" value="bytes : packed data" style="text;html=1;strokeColor=none;fillColor=none;align=center;verticalAlign=middle;whiteSpace=wrap;rounded=0;" vertex="1" parent="BRquKrhbLq2bK9uoOKul-1">
          <mxGeometry x="376" y="450" width="100" height="30" as="geometry" />
        </mxCell>
      </root>
    </mxGraphModel>
  </diagram>
</mxfile>
